<?xml version="1.0" encoding="UTF-8" standalone="no"?>
<!DOCTYPE svg PUBLIC "-//W3C//DTD SVG 1.1//EN" "http://www.w3.org/Graphics/SVG/1.1/DTD/svg11.dtd">
<svg xmlns="http://www.w3.org/2000/svg" version="1.1" viewBox="0.00 0.00 234.00 234.00">
<g stroke-width="2.00" fill="none" stroke-linecap="butt">
<path stroke="#b7d0c1" vector-effect="non-scaling-stroke" d="
  M 51.98 84.58
  L 51.98 146.27
  A 0.76 0.75 0.0 0 1 51.22 147.02
  L 44.81 147.02
  A 0.64 0.63 90.0 0 0 44.18 147.66
  L 44.18 167.26
  A 0.51 0.51 0.0 0 0 44.69 167.77
  L 84.55 167.77
  A 0.65 0.65 0.0 0 0 85.20 167.12
  L 85.20 147.81
  A 0.92 0.92 0.0 0 0 84.28 146.89
  L 78.25 146.89
  A 0.83 0.82 0.0 0 1 77.42 146.07
  L 77.42 135.26
  A 0.42 0.41 -0.0 0 1 77.84 134.85
  Q 86.75 134.95 93.99 134.91
  Q 101.66 134.87 111.54 130.76
  C 117.08 128.46 121.52 123.21 124.70 118.12
  C 131.62 107.05 131.63 86.86 122.89 76.86
  Q 114.92 67.74 104.38 64.66
  Q 98.80 63.03 85.53 63.13
  Q 60.47 63.31 44.83 63.05
  A 0.73 0.73 0.0 0 0 44.08 63.78
  L 44.08 83.31
  A 0.63 0.62 90.0 0 0 44.70 83.94
  L 51.34 83.94
  A 0.64 0.64 0.0 0 1 51.98 84.58"
/>
<path stroke="#a89774" vector-effect="non-scaling-stroke" d="
  M 165.33 162.67
  Q 170.18 168.72 177.69 170.54
  Q 185.78 172.50 193.00 168.47
  Q 200.77 164.13 202.48 156.44
  Q 206.31 139.14 190.60 131.41"
/>
<path stroke="#b7d0c1" vector-effect="non-scaling-stroke" d="
  M 190.60 131.41
  Q 196.19 109.74 186.99 90.63
  C 182.42 81.13 176.33 74.89 167.29 70.02
  Q 153.62 62.67 138.01 63.26
  Q 125.94 63.72 116.61 63.45
  A 0.25 0.25 0.0 0 0 116.48 63.92
  Q 128.36 71.01 132.63 84.67
  A 0.95 0.93 79.8 0 0 133.56 85.33
  Q 137.44 85.17 142.77 85.33
  C 157.30 85.77 167.04 98.89 168.00 112.28
  Q 168.34 117.05 167.52 122.96
  Q 165.18 139.71 149.29 144.79
  C 142.73 146.89 134.63 146.04 130.10 146.10
  A 0.46 0.45 0.0 0 1 129.64 145.65
  L 129.64 121.92
  A 0.34 0.34 0.0 0 0 129.01 121.73
  C 127.36 124.35 126.25 126.21 124.25 128.03
  Q 115.42 136.07 105.44 138.64
  A 1.27 1.26 -7.5 0 0 104.50 139.86
  L 104.50 146.45
  A 0.63 0.63 0.0 0 1 103.87 147.08
  L 97.94 147.08
  A 0.99 0.99 0.0 0 0 96.95 148.07
  L 96.95 167.24
  A 0.55 0.55 0.0 0 0 97.50 167.79
  Q 131.74 167.63 142.24 167.60
  Q 154.53 167.56 165.33 162.67"
/>
<path stroke="#e8bc97" vector-effect="non-scaling-stroke" d="
  M 190.60 131.41
  C 180.04 128.02 169.90 130.97 164.32 140.71
  Q 158.56 150.76 165.33 162.67"
/>
<path stroke="#b7d0c1" vector-effect="non-scaling-stroke" d="
  M 77.16 85.34
  L 77.20 112.38
  A 0.75 0.75 0.0 0 0 77.95 113.13
  L 91.37 113.11
  A 13.64 13.49 89.9 0 0 104.84 99.45
  L 104.84 98.19
  A 13.64 13.49 89.9 0 0 91.33 84.57
  L 77.91 84.59
  A 0.75 0.75 0.0 0 0 77.16 85.34"
/>
<path stroke="#8f6546" vector-effect="non-scaling-stroke" d="
  M 175.5200 140.8926
  A 3.82 3.44 -92.1 0 0 172.2223 144.8361
  A 3.82 3.44 -92.1 0 0 175.8000 148.5274
  A 3.82 3.44 -92.1 0 0 179.0977 144.5839
  A 3.82 3.44 -92.1 0 0 175.5200 140.8926"
/>
<path stroke="#8f6546" vector-effect="non-scaling-stroke" d="
  M 193.40 144.77
  A 3.54 3.54 0.0 0 0 189.86 141.23
  A 3.54 3.54 0.0 0 0 186.32 144.77
  A 3.54 3.54 0.0 0 0 189.86 148.31
  A 3.54 3.54 0.0 0 0 193.40 144.77"
/>
<path stroke="#8f6546" vector-effect="non-scaling-stroke" d="
  M 183.04 162.64
  Q 189.30 162.57 193.50 156.83
  A 1.25 1.25 0.0 0 0 192.99 154.95
  Q 192.33 154.66 191.80 154.75
  Q 191.45 154.81 190.95 155.52
  C 189.13 158.12 185.98 158.93 183.00 158.97
  C 180.01 159.00 176.85 158.27 174.96 155.71
  Q 174.44 155.02 174.09 154.97
  Q 173.56 154.89 172.91 155.19
  A 1.25 1.25 0.0 0 0 172.45 157.09
  Q 176.78 162.72 183.04 162.64"
/>
</g>
<path fill="#76ab9e" d="
  M 233.01 117.00
  A 116.01 116.01 0.0 0 1 117.00 233.01
  A 116.01 116.01 0.0 0 1 0.99 117.00
  A 116.01 116.01 0.0 0 1 117.00 0.99
  A 116.01 116.01 0.0 0 1 233.01 117.00
  Z
  M 51.98 84.58
  L 51.98 146.27
  A 0.76 0.75 0.0 0 1 51.22 147.02
  L 44.81 147.02
  A 0.64 0.63 90.0 0 0 44.18 147.66
  L 44.18 167.26
  A 0.51 0.51 0.0 0 0 44.69 167.77
  L 84.55 167.77
  A 0.65 0.65 0.0 0 0 85.20 167.12
  L 85.20 147.81
  A 0.92 0.92 0.0 0 0 84.28 146.89
  L 78.25 146.89
  A 0.83 0.82 0.0 0 1 77.42 146.07
  L 77.42 135.26
  A 0.42 0.41 -0.0 0 1 77.84 134.85
  Q 86.75 134.95 93.99 134.91
  Q 101.66 134.87 111.54 130.76
  C 117.08 128.46 121.52 123.21 124.70 118.12
  C 131.62 107.05 131.63 86.86 122.89 76.86
  Q 114.92 67.74 104.38 64.66
  Q 98.80 63.03 85.53 63.13
  Q 60.47 63.31 44.83 63.05
  A 0.73 0.73 0.0 0 0 44.08 63.78
  L 44.08 83.31
  A 0.63 0.62 90.0 0 0 44.70 83.94
  L 51.34 83.94
  A 0.64 0.64 0.0 0 1 51.98 84.58
  Z
  M 165.33 162.67
  Q 170.18 168.72 177.69 170.54
  Q 185.78 172.50 193.00 168.47
  Q 200.77 164.13 202.48 156.44
  Q 206.31 139.14 190.60 131.41
  Q 196.19 109.74 186.99 90.63
  C 182.42 81.13 176.33 74.89 167.29 70.02
  Q 153.62 62.67 138.01 63.26
  Q 125.94 63.72 116.61 63.45
  A 0.25 0.25 0.0 0 0 116.48 63.92
  Q 128.36 71.01 132.63 84.67
  A 0.95 0.93 79.8 0 0 133.56 85.33
  Q 137.44 85.17 142.77 85.33
  C 157.30 85.77 167.04 98.89 168.00 112.28
  Q 168.34 117.05 167.52 122.96
  Q 165.18 139.71 149.29 144.79
  C 142.73 146.89 134.63 146.04 130.10 146.10
  A 0.46 0.45 0.0 0 1 129.64 145.65
  L 129.64 121.92
  A 0.34 0.34 0.0 0 0 129.01 121.73
  C 127.36 124.35 126.25 126.21 124.25 128.03
  Q 115.42 136.07 105.44 138.64
  A 1.27 1.26 -7.5 0 0 104.50 139.86
  L 104.50 146.45
  A 0.63 0.63 0.0 0 1 103.87 147.08
  L 97.94 147.08
  A 0.99 0.99 0.0 0 0 96.95 148.07
  L 96.95 167.24
  A 0.55 0.55 0.0 0 0 97.50 167.79
  Q 131.74 167.63 142.24 167.60
  Q 154.53 167.56 165.33 162.67
  Z"
/>
<path fill="#f7f4e4" d="
  M 51.98 84.58
  A 0.64 0.64 0.0 0 0 51.34 83.94
  L 44.70 83.94
  A 0.63 0.62 -90.0 0 1 44.08 83.31
  L 44.08 63.78
  A 0.73 0.73 0.0 0 1 44.83 63.05
  Q 60.47 63.31 85.53 63.13
  Q 98.80 63.03 104.38 64.66
  Q 114.92 67.74 122.89 76.86
  C 131.63 86.86 131.62 107.05 124.70 118.12
  C 121.52 123.21 117.08 128.46 111.54 130.76
  Q 101.66 134.87 93.99 134.91
  Q 86.75 134.95 77.84 134.85
  A 0.42 0.41 0.0 0 0 77.42 135.26
  L 77.42 146.07
  A 0.83 0.82 -0.0 0 0 78.25 146.89
  L 84.28 146.89
  A 0.92 0.92 0.0 0 1 85.20 147.81
  L 85.20 167.12
  A 0.65 0.65 0.0 0 1 84.55 167.77
  L 44.69 167.77
  A 0.51 0.51 0.0 0 1 44.18 167.26
  L 44.18 147.66
  A 0.64 0.63 90.0 0 1 44.81 147.02
  L 51.22 147.02
  A 0.76 0.75 0.0 0 0 51.98 146.27
  L 51.98 84.58
  Z
  M 77.16 85.34
  L 77.20 112.38
  A 0.75 0.75 0.0 0 0 77.95 113.13
  L 91.37 113.11
  A 13.64 13.49 89.9 0 0 104.84 99.45
  L 104.84 98.19
  A 13.64 13.49 89.9 0 0 91.33 84.57
  L 77.91 84.59
  A 0.75 0.75 0.0 0 0 77.16 85.34
  Z"
/>
<path fill="#f7f4e4" d="
  M 190.60 131.41
  C 180.04 128.02 169.90 130.97 164.32 140.71
  Q 158.56 150.76 165.33 162.67
  Q 154.53 167.56 142.24 167.60
  Q 131.74 167.63 97.50 167.79
  A 0.55 0.55 0.0 0 1 96.95 167.24
  L 96.95 148.07
  A 0.99 0.99 0.0 0 1 97.94 147.08
  L 103.87 147.08
  A 0.63 0.63 0.0 0 0 104.50 146.45
  L 104.50 139.86
  A 1.27 1.26 -7.5 0 1 105.44 138.64
  Q 115.42 136.07 124.25 128.03
  C 126.25 126.21 127.36 124.35 129.01 121.73
  A 0.34 0.34 0.0 0 1 129.64 121.92
  L 129.64 145.65
  A 0.46 0.45 -0.0 0 0 130.10 146.10
  C 134.63 146.04 142.73 146.89 149.29 144.79
  Q 165.18 139.71 167.52 122.96
  Q 168.34 117.05 168.00 112.28
  C 167.04 98.89 157.30 85.77 142.77 85.33
  Q 137.44 85.17 133.56 85.33
  A 0.95 0.93 79.8 0 1 132.63 84.67
  Q 128.36 71.01 116.48 63.92
  A 0.25 0.25 0.0 0 1 116.61 63.45
  Q 125.94 63.72 138.01 63.26
  Q 153.62 62.67 167.29 70.02
  C 176.33 74.89 182.42 81.13 186.99 90.63
  Q 196.19 109.74 190.60 131.41
  Z"
/>
<path fill="#76ab9e" d="
  M 77.16 85.34
  A 0.75 0.75 0.0 0 1 77.91 84.59
  L 91.33 84.57
  A 13.64 13.49 89.9 0 1 104.84 98.19
  L 104.84 99.45
  A 13.64 13.49 89.9 0 1 91.37 113.11
  L 77.95 113.13
  A 0.75 0.75 0.0 0 1 77.20 112.38
  L 77.16 85.34
  Z"
/>
<path fill="#d98349" d="
  M 190.60 131.41
  Q 206.31 139.14 202.48 156.44
  Q 200.77 164.13 193.00 168.47
  Q 185.78 172.50 177.69 170.54
  Q 170.18 168.72 165.33 162.67
  Q 158.56 150.76 164.32 140.71
  C 169.90 130.97 180.04 128.02 190.60 131.41
  Z
  M 175.5200 140.8926
  A 3.82 3.44 -92.1 0 0 172.2223 144.8361
  A 3.82 3.44 -92.1 0 0 175.8000 148.5274
  A 3.82 3.44 -92.1 0 0 179.0977 144.5839
  A 3.82 3.44 -92.1 0 0 175.5200 140.8926
  Z
  M 193.40 144.77
  A 3.54 3.54 0.0 0 0 189.86 141.23
  A 3.54 3.54 0.0 0 0 186.32 144.77
  A 3.54 3.54 0.0 0 0 189.86 148.31
  A 3.54 3.54 0.0 0 0 193.40 144.77
  Z
  M 183.04 162.64
  Q 189.30 162.57 193.50 156.83
  A 1.25 1.25 0.0 0 0 192.99 154.95
  Q 192.33 154.66 191.80 154.75
  Q 191.45 154.81 190.95 155.52
  C 189.13 158.12 185.98 158.93 183.00 158.97
  C 180.01 159.00 176.85 158.27 174.96 155.71
  Q 174.44 155.02 174.09 154.97
  Q 173.56 154.89 172.91 155.19
  A 1.25 1.25 0.0 0 0 172.45 157.09
  Q 176.78 162.72 183.04 162.64
  Z"
/>
<ellipse fill="#454643" cx="0.00" cy="0.00" transform="translate(175.66,144.71) rotate(-92.1)" rx="3.82" ry="3.44"/>
<circle fill="#454643" cx="189.86" cy="144.77" r="3.54"/>
<path fill="#454643" d="
  M 183.00 158.97
  C 185.98 158.93 189.13 158.12 190.95 155.52
  Q 191.45 154.81 191.80 154.75
  Q 192.33 154.66 192.99 154.95
  A 1.25 1.25 0.0 0 1 193.50 156.83
  Q 189.30 162.57 183.04 162.64
  Q 176.78 162.72 172.45 157.09
  A 1.25 1.25 0.0 0 1 172.91 155.19
  Q 173.56 154.89 174.09 154.97
  Q 174.44 155.02 174.96 155.71
  C 176.85 158.27 180.01 159.00 183.00 158.97
  Z"
/>
</svg>
